<svg id="Layer_1" data-name="Layer 1" xmlns="http://www.w3.org/2000/svg" viewBox="0 0 1096.8 414.17"><defs><style>.cls-1{fill:#fff;}</style></defs><title>AisB_logo_white</title><path class="cls-1" d="M621.32,106c.67,0,5,10.58,5,11.26,6.95,18.23,14.58,36.18,21.91,54.23,0,1.94-1.83,2-5.4,2-.87,0-8.11-.2-12.36-.2-1.15-2.81-1.83-5.53-4.15-8.34-1.44.1-3.28-.49-6.36-.49l-12.07.2c-.48,0-3-.2-3.28-.2-3.09,0-3,8.15-5.12,9.7-4.92.2-7.14-.38-12.83-.38-2,0-4.06-.2-4.06-1.17,0-.29.1-.68.1-.87l5.6-16.3c2.22-4.37,3.47-9.22,5.3-13.78,4.44-11.54,9.27-23.18,13.71-34.92.1-.78,1.93-.78,2.51-.78Zm-8,45.31c2.89-.1,6.94-.1,6.94-.78,0-1.74-.48-2.91-3-8.83a17.74,17.74,0,0,0-1.35-3.1l-1.25-3c-.58,0-6,12.9-6,14.56,0,1.06,1.25,1.16,2.13,1.16Z" transform="translate(-60.06 -50.84)"/><path class="cls-1" d="M662.91,173.09c-.87,0-1.16-1-1.16-1.75,0-8.34.29-16,.29-24,0-13.1-.29-28.33-.29-39.68l.29-.58c1.25-.1,3.09-.2,3.66-.2a4.83,4.83,0,0,1,1.65.2c2.79,0,15.34-.2,15.92-.2,8.78,0,17.18,3.11,22.49,9,4,5,5.5,9.21,5.5,15.32s-2.13,9.8-2.7,10.58c-6.95,9.6-17.76,12-28.28,12-1.64.58-1.64,2.62-1.64,3.88v13.68a2,2,0,0,1-1.74,2.23,1.93,1.93,0,0,1-.48,0c-4.83,0-7.14-.1-10.81-.39-.87,0-1.55-.1-1.93-.1Zm18.72-53a11.13,11.13,0,0,0-2,.09l-1,.78V139.2c0,.68.87.78,1.93.78h1.93c6.75-.3,12.74-2.33,12.74-10.48,0-1.75-.1-2.23-1.45-4.66-2.5-3.56-7.9-4.72-12.15-4.72Z" transform="translate(-60.06 -50.84)"/><path class="cls-1" d="M755.23,106c.67,0,5,10.58,5,11.26,7,18.23,14.58,36.18,21.91,54.23,0,1.94-1.83,2-5.4,2-.87,0-8.11-.2-12.36-.2-1.15-2.81-1.83-5.53-4.15-8.34-1.44.1-3.28-.49-6.36-.49l-12.07.2c-.48,0-3-.2-3.28-.2-3.09,0-3,8.15-5.12,9.7-4.92.2-7.14-.38-12.83-.38-2,0-4.05-.2-4.05-1.17,0-.29.09-.68.09-.87l5.6-16.3c2.22-4.37,3.47-9.22,5.31-13.78,4.44-11.54,9.26-23.18,13.7-34.92.1-.78,1.93-.78,2.51-.78Zm-8,45.31c2.89-.1,6.94-.1,6.94-.78,0-1.74-.48-2.91-3-8.83a17.74,17.74,0,0,0-1.35-3.1l-1.25-3c-.58,0-6,12.9-6,14.56,0,1.06,1.26,1.16,2.13,1.16Z" transform="translate(-60.06 -50.84)"/><path class="cls-1" d="M828.27,107.21c.1,1.75.19,6,.19,13.1,0,.29-1.35.58-1.83.58h-8.4c-.77,0-1.15,1.17-1.15,1.85V172.8a2.69,2.69,0,0,1-1.16.77H800.77l-.68-.58c-.1-.1-.29-29.69-.29-45.6v-6c-1.35,0-11.68,0-11.68-1.46V107.5c0-.09.48-.38.77-.58h17.38a8.29,8.29,0,0,1,1.64.29.42.42,0,0,0,.29-.29h19.2Z" transform="translate(-60.06 -50.84)"/><path class="cls-1" d="M859.55,106.15a1.45,1.45,0,0,1,1.64,1.16c-.19,2.91-.19,15.23-.19,19.11a41.85,41.85,0,0,0,.39,5.24H878c2.31,0,2.31-5.33,2.31-7a24.3,24.3,0,0,0,.2-2.82c0-1.65-.2-8.92-.2-11.25,0-1,.2-3.59.2-3.69l1.16-.58h15.05l.58.58V159c0,4.17-.58,9.51-.58,13.78-.1.38-.77.68-1.06.68H880.79c-1,0-1.35-3.3-1.35-6.41a120.18,120.18,0,0,1,.57-13.68l-.67-7-.48-.29c-3.09,0-9.27-.29-12.55-.29-2.61,0-4.44.19-4.83.58l-.57.48c0,2.82-.2,3.5-.2,5.53,0,2.53.2,5.14.2,7.86,0,4.76,0,7.57-.2,12.52-.58.87-1.93.87-2.8.87-4.63,0-9.26-.19-13.8-.58-1.06-.39-1.16-1.75-1.16-3.11,0-20.37,1-41,1-61.21.1-1.36.39-2.62,1.83-2.62Z" transform="translate(-60.06 -50.84)"/><path class="cls-1" d="M928.31,105.57c1.16,0,2,.19,2.51,1.16l10.91,19.89c.28.39.28.39.48.39.48,0,2.12-3.21,2.6-4.66,1.35-2.43,9-16.49,10-16.49h18.63l.29,1.64-11.1,20.28c-1.06.78-1.45,2.62-2.32,3.59l-7.82,14.84c-1.54,2.33-.67,15.62-1.25,26.39a1.9,1.9,0,0,1-1.35.88c-1.64,0-9.17.19-11,.19-1.64,0-5.22,0-5.22-1.07V148a164.25,164.25,0,0,1-9.16-16.59,93.28,93.28,0,0,0-8-13.1l-5.6-11c0-.29-.19-.78-.19-1s.86-.77,1.15-.77Z" transform="translate(-60.06 -50.84)"/><path class="cls-1" d="M605.2,193.44l.67.39.39.58v2.91c0,20.76-.1,41.62-.49,62.38-.47,1.16-1.25,1.16-2.6,1.16H591.49c-.38,0-.87-.09-1.83-.09a2,2,0,0,1-1.84-1.26c-.38-4.08-.38-11-.38-12,0-14.56.67-29.11.67-43.56,0-1.85-.09-4.27-.09-4.66.38-2.23,0-5.43,1.15-6.21C594.58,193.05,599.79,193.44,605.2,193.44Z" transform="translate(-60.06 -50.84)"/><path class="cls-1" d="M637.7,230.6c-7.72-4.95-12.45-11-12.45-19.21,0-13.2,10.52-18.73,23.54-18.73A29.43,29.43,0,0,1,660.28,195c.87.29,5.79,2.52,5.79,3.2l-.1.49c0,.29-.38.39-.38.77-1.35,2.82-5,9-5.79,10.09-.1.29-.29.29-.49.29-1.44,0-6.85-3.2-10.71-3.2-2.51,0-5.79,1.36-5.79,4.37,0,2,1,3.39,2.9,5a70.88,70.88,0,0,0,7.72,5.14c4.53,3.3,8.68,5.62,11.48,8.92,3.19,4.08,4,6.79,4,11.35,0,12.52-10.91,20.86-23.16,20.86a39.44,39.44,0,0,1-19.4-5c-3.48-2.14-4.06-2.72-4.06-3v-.39c.58-1.07,4.35-8,7-12,2.22,0,3.57,2,5.21,2.82a25.41,25.41,0,0,0,11.68,2.62c2.8,0,5.69-1.07,5.69-4.27,0-1.27-.29-2.24-1.64-4C647,235.74,640.88,232.63,637.7,230.6Z" transform="translate(-60.06 -50.84)"/><path class="cls-1" d="M748.48,192.18c10.52,0,21.14,6.21,21.14,19.3a19.32,19.32,0,0,1-2.51,9.12c-.67,1-4,3.88-4,4.66,0,.29.2.39.49.68,4.63,4.07,7.33,8.83,7.33,15.13,0,12-9.36,18.63-18.82,19.21-8,0-13.22.1-17.47.1s-7.43-.1-11.58-.39c-1-.29-1.16-1.55-1.16-2.42l.19-63.84c.29-.39.49-1.55,1.26-1.55Zm-8.59,13.87c-.38.1-1,.58-1,.87V217.4l.67.58h2.61l.58-.09c3.86-.2,7.53-1.17,7.53-5.63a9.37,9.37,0,0,0-.19-1.75,5.53,5.53,0,0,0-.49-1.36c-1.5-3-5.6-3.1-9.71-3.1Zm2.7,26.68c-2.5,0-3.66,0-3.66,1.36v11l.67.29,1.26.1,1.93.09,1.35.1c3.86,0,8.39-1.36,8.39-6.21a7.11,7.11,0,0,0-.76-3.2c-1.77-3.14-6.18-3.53-9.18-3.53Z" transform="translate(-60.06 -50.84)"/><path class="cls-1" d="M784.1,225.65c0-6,1.83-11.16,4.25-16.59,1.73-1.17,2.5-4.17,3.95-5.53,7.92-7.86,14.58-11.94,26-11.94A36,36,0,0,1,845,203c3.86,3.88,9.17,12.51,9.17,24.44,0,17.85-15.06,34.64-35.33,34.64A33.83,33.83,0,0,1,795.78,253,37.18,37.18,0,0,1,784.1,225.65ZM819,209.06c-9.75,0-17,7.76-17,17.36,0,5.73,2.12,10.38,5.79,13.39,1.83,1.84,6.47,4.08,12,4.08,9.75,0,16.89-7.86,16.89-17.47,0-4.17-1-6.89-4.15-11.15A17.7,17.7,0,0,0,819,209.06Z" transform="translate(-60.06 -50.84)"/><path class="cls-1" d="M897.64,193.44c12.16,0,23.17,10.28,23.17,22.8,0,10-6.18,17.17-15.16,20.85-.19,0-.29.2-.29.49,0,.1.1.2.1.29L922,258.15c.58,1.26,1.16,2,1.16,2.23,0,.48-7,.78-7.43.78a3.23,3.23,0,0,1-1.06-.3H904.3a2,2,0,0,1-1.64-1.06l-13.41-15.91c-.39-.39-.87-1.26-1.55-1.26-.09,0-.19.09-.48,1.26V259.6c0,.29-.19.78-.58.78H873.52c-2.42,0-2.9-1.07-3.09-3.4,0-16.59.29-27.84.29-41.81,0-1.75-.29-14.07-.29-14.46.09-2.13.29-7.08.48-7.27Zm4.54,17.85c-1.93-3-6-3.78-10-3.78-1.35,0-2.7.09-4,.19l-.87,1c-.1,3.69-.29,9.22-.29,11.06,0,2.52,0,6.5,1.16,7.28h1.06c9.84-.3,14.28-1.56,14.28-11a8.67,8.67,0,0,0-1.34-4.75Z" transform="translate(-60.06 -50.84)"/><path class="cls-1" d="M955.39,193.44l.67.39.39.58v2.91c0,20.76-.1,41.62-.49,62.38-.48,1.16-1.25,1.16-2.6,1.16H941.68c-.38,0-.87-.09-1.83-.09a2,2,0,0,1-1.84-1.26c-.38-4.08-.38-11-.38-12,0-14.56.67-29.11.67-43.56,0-1.85-.09-4.27-.09-4.66.38-2.23,0-5.43,1.15-6.21C944.77,193.05,950,193.44,955.39,193.44Z" transform="translate(-60.06 -50.84)"/><path class="cls-1" d="M1033.38,195.28v34.64c-.1.38-.29,2.71-.39,2.81,0,8.34.39,16.78.39,24.93,0,.39,0,2.82-1.16,2.82h-12.55a2.32,2.32,0,0,1-2.22-1.07l-11.87-17.85c-.2-.68-1.55-1.94-1.64-2.23l-9.75-14.17L993,223.9l-.19.39c0,6.21,0,36-.87,36H976.72l-.58-.29c0-15.33.39-35.51.39-52.68,0-3.3,0-6.69-.2-10.09l.39-2.81,1.93-.39,12.16.39c.68,0,1.83,1.94,2,2.52l9.07,13.19c.29.78,1.06,1.36,1.45,2.24l12.45,17.17c.19.39.39.68.77.68a.3.3,0,0,0,.29-.29v-35l.58-.48c.1-.1,3-.1,4.15-.1,4.25,0,11.39.1,11.39.39Z" transform="translate(-60.06 -50.84)"/><path class="cls-1" d="M1106.37,198.77a1.75,1.75,0,0,1,.87,1.56c0,.67-.1.77-.58,1.55L1100,212.55c-.48.58-.58.58-1.16.58-1.45,0-2.9-1.45-4.25-2-3.28-1.17-6.08-2.14-9.65-2.14-10.52,0-17.47,7.37-17.47,18.24,0,9.12,7,17.46,16.21,17.46,5.32,0,8.89-1.45,12.36-5.43.77-.87,2.32-4,2.32-5.24-1.16,0-2.61-.29-4.83-.29a12.56,12.56,0,0,1-3.86-.39c0-1.07-.2-3.49-.2-7.57a38.12,38.12,0,0,1,.39-5.23l.58-1c.58-.09,5.12-.19,6.18-.19,6.66,0,13.61.58,20.56.58a2.63,2.63,0,0,1,1,2.43c0,23.18-11.87,40-34.93,40a11.43,11.43,0,0,1-3.77-.39,2,2,0,0,0-.77-.1c-3.19,0-7-1.84-9.85-3.1-7.91-3.49-15.25-12.71-17.66-21.15A35.56,35.56,0,0,1,1050,227c0-19.7,14.29-35,34-35C1092.28,192,1098.65,193.92,1106.37,198.77Z" transform="translate(-60.06 -50.84)"/><path class="cls-1" d="M1140.53,245.73a1.29,1.29,0,0,1,1,.87v12.23c0,1.55-4.44,1.55-6.27,1.55-2.42,0-7.72-.49-8-.58l-.2-1V246.6c0-.29,1.45-.87,2.51-.87Z" transform="translate(-60.06 -50.84)"/><path class="cls-1" d="M609.77,346.07a.73.73,0,0,1,.14,1,.93.93,0,0,1-.14.14,18.81,18.81,0,0,1-13.42,5.55,19.83,19.83,0,0,1,0-39.65,18.81,18.81,0,0,1,13.42,5.55.73.73,0,0,1,.14,1,.93.93,0,0,1-.14.14l-3.63,3.9a.76.76,0,0,1-1.06.15l-.1-.09a12.78,12.78,0,0,0-8.69-3.3c-6.71,0-12,5.33-12,12.48s5.28,12.43,12,12.43a12.78,12.78,0,0,0,8.69-3.3.76.76,0,0,1,1.07,0,.81.81,0,0,1,.09.1Z" transform="translate(-60.06 -50.84)"/><path class="cls-1" d="M612.85,338.65a14.07,14.07,0,1,1,0,.13Zm20.95,0a7,7,0,1,0-14,0c0,4.35,3.08,7.42,7,7.42a7.06,7.06,0,0,0,7-7.11C633.81,338.86,633.81,338.75,633.8,338.65Z" transform="translate(-60.06 -50.84)"/><path class="cls-1" d="M671.54,335.9v15.34a.79.79,0,0,1-.75.83H665.1a.78.78,0,0,1-.83-.73v-14.1c0-4.46-2.42-6-5.06-6a6.25,6.25,0,0,0-5.94,5.28v14.74a.78.78,0,0,1-.73.83h-5.7a.77.77,0,0,1-.82-.72V326a.77.77,0,0,1,.72-.82h5.49a.8.8,0,0,1,.82.78v0l.22,3.52v.06a9.86,9.86,0,0,1,8.53-5C667.3,324.51,671.54,328.69,671.54,335.9Z" transform="translate(-60.06 -50.84)"/><path class="cls-1" d="M703.1,335.9v15.34a.78.78,0,0,1-.73.83h-5.71a.78.78,0,0,1-.82-.74V337.24c0-4.46-2.42-6-5.06-6a6.25,6.25,0,0,0-5.94,5.28v14.74a.78.78,0,0,1-.73.83h-5.7a.78.78,0,0,1-.83-.73V326a.78.78,0,0,1,.74-.82h5.48a.8.8,0,0,1,.82.78v0l.22,3.52v.06a9.82,9.82,0,0,1,8.53-5C698.87,324.51,703.1,328.69,703.1,335.9Z" transform="translate(-60.06 -50.84)"/><path class="cls-1" d="M732.8,341.29H715.53c.72,3.57,3.47,5.61,7.7,5.61A9.3,9.3,0,0,0,729,345c.5-.33.83-.33,1.21.05l2.42,2.37c.39.38.39.77,0,1.21a14.09,14.09,0,0,1-10,4.12,13.73,13.73,0,0,1-14.19-13.26q0-.44,0-.87c0-7.92,5.77-14.14,13.58-14.14s12.82,6.22,12.82,13.53C734.73,340.19,734.45,341.29,732.8,341.29Zm-17.38-4.73h12.87c-.49-3.8-3.08-5.89-6.32-5.89A6.47,6.47,0,0,0,715.42,336.56Z" transform="translate(-60.06 -50.84)"/><path class="cls-1" d="M758.54,343.65a.79.79,0,0,1,1.1-.11l.11.11,3.36,3.19a.8.8,0,0,1,0,1.13l0,0a14,14,0,1,1-10.56-23.49A13.67,13.67,0,0,1,763,329.3a.8.8,0,0,1,0,1.12l0,0-3.35,3.25c-.39.38-.77.33-1.21-.06a8,8,0,0,0-5.61-2.42c-4.07,0-6.93,3.19-6.93,7.43s2.86,7.42,6.93,7.42A8.08,8.08,0,0,0,758.54,343.65Z" transform="translate(-60.06 -50.84)"/><path class="cls-1" d="M783.57,325.94v4.29a.78.78,0,0,1-.73.83H778.9v20.18a.79.79,0,0,1-.75.83h-5.69a.78.78,0,0,1-.83-.73V331.06h-3.84a.78.78,0,0,1-.83-.73v-4.39a.78.78,0,0,1,.74-.82h3.93v-7.43a.78.78,0,0,1,.74-.82h5.7a.78.78,0,0,1,.83.73v7.52h3.85a.78.78,0,0,1,.82.74Z" transform="translate(-60.06 -50.84)"/><path class="cls-1" d="M796.33,349.7c0,3.52-2.2,7.81-5.28,11.17l-1.87-1.16a14.07,14.07,0,0,0,2.36-6.87,4,4,0,0,1,.66-8h0C794.46,344.81,796.33,346.51,796.33,349.7Z" transform="translate(-60.06 -50.84)"/><path class="cls-1" d="M839.17,346.24v5a.78.78,0,0,1-.73.83H818.06a.78.78,0,0,1-.83-.73V314.39a.78.78,0,0,1,.74-.82h20.32a.78.78,0,0,1,.83.73v5.09a.78.78,0,0,1-.74.82H824.77v8.69h12.7a.78.78,0,0,1,.82.74v5.09a.78.78,0,0,1-.73.83H824.77v9.84h13.58a.78.78,0,0,1,.82.74Z" transform="translate(-60.06 -50.84)"/><path class="cls-1" d="M872.78,312.74v38.5a.78.78,0,0,1-.73.83h-5.16a.81.81,0,0,1-.82-.8v0l-.22-2.31a10.4,10.4,0,0,1-8.14,3.85c-7.54,0-13-6.27-13-14.13s5.5-14.14,13-14.14a10.63,10.63,0,0,1,7.81,3.52V312.74a.78.78,0,0,1,.74-.82H872a.78.78,0,0,1,.78.78Zm-7.32,25.85c0-4.07-2.91-7.48-6.87-7.48s-6.93,3.19-6.93,7.48,2.91,7.59,6.93,7.59S865.46,342.66,865.46,338.59Z" transform="translate(-60.06 -50.84)"/><path class="cls-1" d="M904.07,325.94v25.3a.78.78,0,0,1-.73.83h-5.48c-.5,0-.77-.33-.83-.83l-.22-3a9.86,9.86,0,0,1-8,4.56c-6,0-10.23-4.18-10.23-11.38V325.94a.78.78,0,0,1,.74-.82H885a.78.78,0,0,1,.82.74v14.22c0,4.45,2.59,6,5.17,6a5.71,5.71,0,0,0,5.83-5.22V325.94a.78.78,0,0,1,.74-.82h5.69a.78.78,0,0,1,.82.74Z" transform="translate(-60.06 -50.84)"/><path class="cls-1" d="M929,343.65a.79.79,0,0,1,1.1-.11l.11.11,3.35,3.19a.81.81,0,0,1,.08,1.14l0,0a14,14,0,1,1-10.56-23.49,13.66,13.66,0,0,1,10.39,4.79.8.8,0,0,1,0,1.12l0,0L930,333.7c-.38.38-.77.33-1.21-.06a8,8,0,0,0-5.61-2.42c-4.07,0-6.93,3.19-6.93,7.43s2.86,7.42,6.93,7.42A8.1,8.1,0,0,0,929,343.65Z" transform="translate(-60.06 -50.84)"/><path class="cls-1" d="M965.23,325.94v25.3a.78.78,0,0,1-.73.83h-5.15c-.5,0-.77-.33-.83-.83l-.22-2.31a10.4,10.4,0,0,1-8.14,3.85c-7.53,0-13-6.27-13-14.13s5.5-14.14,13-14.14a10.81,10.81,0,0,1,8.2,4l.16-2.53a.81.81,0,0,1,.8-.82h5.09a.78.78,0,0,1,.82.74Zm-7.31,12.65c0-4.07-2.92-7.48-6.88-7.48s-6.93,3.19-6.93,7.48,2.92,7.59,6.93,7.59S957.92,342.66,957.92,338.59Z" transform="translate(-60.06 -50.84)"/><path class="cls-1" d="M986.79,325.94v4.29a.78.78,0,0,1-.73.83h-3.94v20.18a.79.79,0,0,1-.75.83h-5.69a.77.77,0,0,1-.82-.72V331.06H971a.78.78,0,0,1-.83-.73v-4.39a.78.78,0,0,1,.74-.82h3.94v-7.43a.77.77,0,0,1,.72-.82h5.71a.78.78,0,0,1,.83.73v7.52H986a.78.78,0,0,1,.79.77Z" transform="translate(-60.06 -50.84)"/><path class="cls-1" d="M1014.89,341.29H997.62c.72,3.57,3.47,5.61,7.7,5.61A9.25,9.25,0,0,0,1011,345c.5-.33.83-.33,1.21.05l2.42,2.37a.77.77,0,0,1,0,1.21,14.09,14.09,0,0,1-10,4.12,13.73,13.73,0,0,1-14.19-13.26q0-.44,0-.87c0-7.92,5.77-14.14,13.58-14.14s12.82,6.22,12.82,13.53C1016.82,340.19,1016.54,341.29,1014.89,341.29Zm-17.38-4.73h12.87c-.49-3.8-3.08-5.89-6.32-5.89S998.12,332.76,997.51,336.56Z" transform="translate(-60.06 -50.84)"/><path class="cls-1" d="M604.38,381v25.3a.78.78,0,0,1-.74.82h-5.09a.81.81,0,0,1-.83-.79v0L597.5,404a10.47,10.47,0,0,1-8.14,3.84c-7.54,0-13-6.26-13-14.13s5.5-14.14,13-14.14a10.77,10.77,0,0,1,8.19,4l.17-2.53c.06-.5.33-.83.83-.83h5a.78.78,0,0,1,.83.73Zm-7.32,12.64c0-4.07-2.91-7.48-6.87-7.48s-6.93,3.19-6.93,7.48,2.91,7.6,6.93,7.6,6.87-3.57,6.87-7.65Z" transform="translate(-60.06 -50.84)"/><path class="cls-1" d="M636,390.9v15.35a.78.78,0,0,1-.74.82h-5.7a.78.78,0,0,1-.82-.74V392.25c0-4.45-2.42-6-5.06-6a6.25,6.25,0,0,0-5.94,5.28v14.74a.78.78,0,0,1-.74.82h-5.7a.78.78,0,0,1-.82-.74V381a.78.78,0,0,1,.73-.83h5.48c.5,0,.77.33.83.83l.22,3.52h0a9.82,9.82,0,0,1,8.52-5C631.71,379.51,636,383.7,636,390.9Z" transform="translate(-60.06 -50.84)"/><path class="cls-1" d="M669.28,367.75v38.5a.78.78,0,0,1-.74.82h-5.15a.8.8,0,0,1-.82-.78v0l-.22-2.31a10.47,10.47,0,0,1-8.14,3.84c-7.54,0-13-6.26-13-14.13s5.5-14.14,13-14.14A10.66,10.66,0,0,1,662,383V367.75a.78.78,0,0,1,.73-.83h5.7a.78.78,0,0,1,.85.7ZM662,393.59c0-4.07-2.91-7.48-6.87-7.48s-6.93,3.19-6.93,7.48,2.91,7.6,6.93,7.6S662,397.67,662,393.59Z" transform="translate(-60.06 -50.84)"/><path class="cls-1" d="M723,407.07h-6.1a.89.89,0,0,1-.94-.66l-2.25-6.66h-14.3l-2.26,6.66a.88.88,0,0,1-.93.66h-6.11c-.6,0-.88-.39-.66-.94l13.37-36.9a.93.93,0,0,1,.93-.66h5.5a1.08,1.08,0,0,1,1,.66l13.36,36.9C723.89,406.68,723.62,407.07,723,407.07Zm-11.38-13.7-5.06-15-5.06,15Z" transform="translate(-60.06 -50.84)"/><path class="cls-1" d="M744.57,398.65a.79.79,0,0,1,1.1-.11.57.57,0,0,1,.11.11l3.36,3.19a.81.81,0,0,1,.08,1.13l0,0a14,14,0,1,1-10.56-23.49A13.69,13.69,0,0,1,749,384.3a.8.8,0,0,1,0,1.13l0,0-3.35,3.24c-.39.38-.77.33-1.21-.06a7.91,7.91,0,0,0-5.61-2.41c-4.07,0-6.93,3.18-6.93,7.42s2.86,7.42,6.93,7.42A8.07,8.07,0,0,0,744.57,398.65Z" transform="translate(-60.06 -50.84)"/><path class="cls-1" d="M769.6,381v4.29a.78.78,0,0,1-.74.82h-3.94V406.3a.78.78,0,0,1-.74.82h-5.69a.78.78,0,0,1-.83-.73V386.06h-3.85a.78.78,0,0,1-.82-.74V381a.78.78,0,0,1,.73-.83h3.94V372.7a.78.78,0,0,1,.73-.83h5.71a.78.78,0,0,1,.82.74v7.51h3.85a.77.77,0,0,1,.83.72A.43.43,0,0,1,769.6,381Z" transform="translate(-60.06 -50.84)"/><path class="cls-1" d="M774.33,371a4,4,0,1,1,4,4A4,4,0,0,1,774.33,371Zm1.15,9.13h5.61a.78.78,0,0,1,.83.73v25.4a.78.78,0,0,1-.74.82h-5.7a.78.78,0,0,1-.82-.74V381a.76.76,0,0,1,.67-.87h.15Z" transform="translate(-60.06 -50.84)"/><path class="cls-1" d="M808.21,380.12h5.66c.61,0,.88.33.66.93l-10.06,25.36a1,1,0,0,1-1,.66h-5.61a1,1,0,0,1-1-.66l-10.12-25.36c-.22-.6,0-.93.66-.93h5.66a1,1,0,0,1,1,.66l6.6,17.82,6.55-17.82A1,1,0,0,1,808.21,380.12Z" transform="translate(-60.06 -50.84)"/><path class="cls-1" d="M844.45,381v25.3a.78.78,0,0,1-.74.82h-5.14a.81.81,0,0,1-.83-.79v0l-.22-2.31a10.41,10.41,0,0,1-8.14,3.84c-7.53,0-13-6.26-13-14.13s5.5-14.14,13-14.14a10.81,10.81,0,0,1,8.2,4l.16-2.53c.06-.5.33-.83.83-.83h5.06a.78.78,0,0,1,.82.74Zm-7.31,12.64c0-4.07-2.92-7.48-6.88-7.48s-6.93,3.19-6.93,7.48,2.92,7.6,6.93,7.6,6.88-3.57,6.88-7.65Z" transform="translate(-60.06 -50.84)"/><path class="cls-1" d="M866,381v4.29a.78.78,0,0,1-.74.82h-3.93V406.3a.78.78,0,0,1-.74.82H854.9a.78.78,0,0,1-.82-.74V386.06h-3.85a.78.78,0,0,1-.83-.73V381a.78.78,0,0,1,.73-.83h4V372.7a.78.78,0,0,1,.73-.83h5.7a.78.78,0,0,1,.83.73v7.52h3.85a.78.78,0,0,1,.82.74A.66.66,0,0,1,866,381Z" transform="translate(-60.06 -50.84)"/><path class="cls-1" d="M894.11,396.29H876.84c.72,3.57,3.47,5.61,7.71,5.61a9.25,9.25,0,0,0,5.71-1.87c.5-.33.83-.33,1.21.05l2.43,2.37c.38.38.38.77-.06,1.21a14,14,0,0,1-10,4.12,13.73,13.73,0,0,1-14.19-13.26q0-.43,0-.87c0-7.92,5.77-14.14,13.58-14.14S896,385.73,896,393C896,395.19,895.76,396.29,894.11,396.29Zm-17.37-4.73h12.87c-.5-3.79-3.08-5.89-6.33-5.89S877.34,387.77,876.74,391.56Z" transform="translate(-60.06 -50.84)"/><path class="cls-1" d="M898.51,403.77a4,4,0,1,1,4,4A4,4,0,0,1,898.51,403.77Z" transform="translate(-60.06 -50.84)"/><path class="cls-1" d="M1138.2,181.37v2.73c0,.06-.28.12-.38.12h-1.76c-.16,0-.24.24-.24.39V195a.56.56,0,0,1-.24.16h-3.17l-.15-.12s-.06-6.18-.06-9.5v-1.25c-.28,0-2.44,0-2.44-.3V181.4l.16-.12h3.64a1.86,1.86,0,0,1,.34.06.09.09,0,0,0,.06-.06h4Z" transform="translate(-60.06 -50.84)"/><path class="cls-1" d="M1145,181.29a.69.69,0,0,1,.43.18l3.67,5.4c.06.08.08.12.18.12a.15.15,0,0,0,.16-.12l3.93-5.3.17-.16h.77a21.56,21.56,0,0,1,2.41.08l.06.1c0,.17.08,1.2.08,1.34,0,2,0,12.32-.2,12.32h-3.19c-.19,0-.21-.59-.21-.73,0-1.71.08-3.45.08-5.19v-1.92l-.12-.24c-.1,0-1.15,1.76-1.23,1.84-.83,1.19-1.69,2.16-2.56,3.33-.08.1-.11.12-.19.12s-.3-.28-.36-.38l-1.09-1.35c-.06-.07-.2-.15-.2-.23l-1.22-1.8a11.74,11.74,0,0,1-1.07-1.63V195c-.1.1-.09.24-.15.24H1142c-.12,0-.16-.14-.16-.24V192.1a.53.53,0,0,0,0-.25c0-.5-.08-1.33-.08-1.85,0-2.83.12-5.64.12-8.51a.21.21,0,0,1,.18-.18Z" transform="translate(-60.06 -50.84)"/><path class="cls-1" d="M377.17,247.5V151.06a3.27,3.27,0,0,0-.25-1.24,3.59,3.59,0,0,0-.53-.8c-.07-.07-.09-.17-.16-.24l-97-97a3.23,3.23,0,0,0-5.5,2.31V246.82a4.36,4.36,0,0,0,4.25,4.47h94.94C374.57,251.29,377.17,250,377.17,247.5Zm-7.77-96.44-89.24,89.25V61.81Zm1.34,93.79h-86l86-86Z" transform="translate(-60.06 -50.84)"/><path class="cls-1" d="M277.52,367.73H374a3.27,3.27,0,0,0,1.24-.25,3,3,0,0,0,.8-.53c.07-.06.17-.09.24-.16l97-97A3.22,3.22,0,0,0,471,264.3H278.19a4.36,4.36,0,0,0-4.47,4.25v94.93C273.72,365.14,275.05,367.73,277.52,367.73ZM374,360l-89.24-89.25H463.2Zm-93.79,1.33v-86l86,86Z" transform="translate(-60.06 -50.84)"/><path class="cls-1" d="M157.06,268.35v96.44a3.09,3.09,0,0,0,.25,1.24,3,3,0,0,0,.53.8c.06.07.09.17.16.24l97,97a3.22,3.22,0,0,0,5.49-2.28V269a4.36,4.36,0,0,0-4.25-4.47H161.31C159.65,264.56,157.06,265.89,157.06,268.35Zm7.76,96.44,89.25-89.25V454ZM163.49,271h86l-86,86Z" transform="translate(-60.06 -50.84)"/><path class="cls-1" d="M256.71,148.12H160.27a3.09,3.09,0,0,0-1.24.25,3,3,0,0,0-.8.53c-.07.06-.17.09-.23.16l-97,97a3.22,3.22,0,0,0,2.28,5.49H256a4.36,4.36,0,0,0,4.47-4.25V152.38C260.5,150.71,259.17,148.12,256.71,148.12Zm-96.44,7.76,89.25,89.25H71Zm93.79-1.33v86l-86-86Z" transform="translate(-60.06 -50.84)"/></svg>