<?xml version="1.0" encoding="UTF-8"?>
<svg width="41px" height="44px" viewBox="0 0 41 44" version="1.1" xmlns="http://www.w3.org/2000/svg" xmlns:xlink="http://www.w3.org/1999/xlink">
    <!-- Generator: Sketch 49.3 (51167) - http://www.bohemiancoding.com/sketch -->
    <title>icons8-innovation copy</title>
    <desc>Created with Sketch.</desc>
    <defs></defs>
    <g id="About-–-Story" stroke="none" stroke-width="1" fill="none" fill-rule="evenodd">
        <g id="Desktop---Story" transform="translate(-376.000000, -2581.000000)" fill="#000000">
            <path d="M394.437572,2581 C384.276794,2581 376,2589.35662 376,2599.61538 C376,2603.264 377.414665,2606.28477 378.671772,2609.028 C379.928879,2611.77292 381.028429,2614.21154 381.028429,2616.75 L381.028429,2625 L384.380714,2625 L384.380714,2616.75 C384.380714,2613.25877 382.96605,2610.33108 381.708943,2607.60138 C380.451836,2604.87 379.352286,2602.37215 379.352286,2599.61538 C379.352286,2591.18092 386.083676,2584.38462 394.437572,2584.38462 C400.822,2584.38462 404.219542,2587.06185 406.274493,2589.77969 C408.33112,2592.49585 408.842344,2595.17308 408.842344,2595.17308 L408.894304,2595.38462 L408.999901,2595.59615 C408.999901,2595.59615 412.947218,2603.64138 413.503697,2604.74477 C413.621027,2604.97662 413.621027,2605.16785 413.609294,2605.22031 C413.595885,2605.27446 413.686397,2605.23385 413.555657,2605.27446 C412.606961,2605.54523 410.779965,2606.014 410.779965,2606.014 L409.522858,2606.33215 L409.522858,2611.46154 C409.522858,2612.57169 408.894304,2613.88831 407.898675,2614.89862 C406.904723,2615.91062 405.607388,2616.53846 404.494429,2616.53846 L401.142143,2616.53846 L401.142143,2625 L404.494429,2625 L404.494429,2619.92308 C406.733756,2619.92308 408.788707,2618.81969 410.308969,2617.27969 C411.827554,2615.738 412.875143,2613.70892 412.875143,2611.46154 L412.875143,2608.92308 C413.496992,2608.75723 413.922733,2608.66585 414.499326,2608.5 C415.644131,2608.17 416.554277,2607.19692 416.855983,2606.17308 C417.157689,2605.14923 416.96158,2604.08477 416.488908,2603.15908 C416.004502,2602.19954 412.037072,2594.06292 412.037072,2594.06292 L411.985112,2594.06292 C411.840963,2593.42831 411.21241,2590.70369 408.946265,2587.71677 C406.400203,2584.35754 401.797515,2581 394.437572,2581 Z M394.5,2593 C390.907125,2593 388,2595.98167 388,2599.66667 C388,2603.35167 391.25,2604.69333 391.25,2611.33333 L392.875,2611.33333 C392.875,2612.25833 393.604625,2613 394.5,2613 C395.395375,2613 396.125,2612.25167 396.125,2611.33333 L397.75,2611.33333 C397.75,2604.73833 401,2603.33167 401,2599.66667 C401,2596.00167 398.092875,2593 394.5,2593 Z M394.5,2596 C396.4285,2596 398,2597.49667 398,2599.33333 C398,2600.04333 397.66575,2600.655 397.0165,2601.83333 C396.4145,2602.92 395.676,2604.235 395.15625,2606 L393.84375,2606 C393.324,2604.23 392.5855,2602.86833 391.9835,2601.78167 C391.33425,2600.61667 391,2600.04333 391,2599.33333 C391,2597.49667 392.5715,2596 394.5,2596 Z" id="icons8-innovation-copy"></path>
        </g>
    </g>
</svg>