<?xml version="1.0" encoding="UTF-8"?>
<svg width="36px" height="41px" viewBox="0 0 36 41" version="1.1" xmlns="http://www.w3.org/2000/svg" xmlns:xlink="http://www.w3.org/1999/xlink">
    <!-- Generator: Sketch 49.3 (51167) - http://www.bohemiancoding.com/sketch -->
    <title>icons8-boxing</title>
    <desc>Created with Sketch.</desc>
    <defs></defs>
    <g id="About-–-Story" stroke="none" stroke-width="1" fill="none" fill-rule="evenodd">
        <g id="Desktop---Story" transform="translate(-376.000000, -2824.000000)" fill="#000000">
            <g id="icons8-boxing" transform="translate(376.000000, 2824.000000)">
                <path d="M20.9143636,0 C15.3850909,0 11.9274545,0.74948 9.61363636,2.35832 C7.29981818,3.96552 6.54545455,6.49604 6.54545455,8.815 C6.54545455,9.26928 6.83345455,10.045 6.90381818,10.66 C6.25090909,10.33364 5.68309091,9.84 4.90909091,9.84 C2.20581818,9.84 0,12.06876 0,14.76 C0,25.09364 5.958,31.2174 9.81818182,33.72168 L9.81818182,41 L32.7272727,41 L32.7272727,33.15916 C33.0152727,32.6278 33.6354545,31.39124 34.3129091,28.80168 C35.1687273,25.5348 36,20.45572 36,13.12 C36,9.14136 35.3029091,5.74656 32.8287273,3.38168 C30.3561818,1.01844 26.4894545,0 20.9143636,0 Z M20.9143636,3.28 C26.0918182,3.28 28.9685455,4.25416 30.528,5.74 C32.0874545,7.22584 32.7272727,9.53168 32.7272727,13.12 C32.7272727,20.2048 31.9221818,24.96572 31.1416364,27.93084 C30.51,30.33344 30.1581818,30.82052 29.9650909,31.16 L11.9650909,31.16 C9.02618182,29.39864 3.27272727,24.17032 3.27272727,14.76 C3.27272727,13.86292 3.99436364,13.12 4.90909091,13.12 C5.83527273,13.12 6.54545455,13.83176 6.54545455,14.76 C6.54545455,18.73208 8.28327273,21.19208 10.278,22.19084 C12.2727273,23.19124 14.4261818,22.96 14.7272727,22.96 L14.7272727,19.68 C13.9025455,19.68 12.7587273,19.71772 11.7621818,19.21916 C10.8916364,18.78292 10.17,17.835 9.972,15.58 C10.854,16.02772 11.8374545,16.4 13.0401818,16.4 L26.1818182,16.4 L26.1818182,13.12 L13.0401818,13.12 C11.25,13.12 10.8081818,12.58864 10.3810909,11.78832 C9.95236364,10.98636 9.81818182,9.74324 9.81818182,8.815 C9.81818182,7.03396 10.0865455,5.9778 11.4545455,5.02168 C12.8225455,4.0672 15.6992727,3.28 20.9143636,3.28 Z M13.0909091,37.72 L29.4545455,37.72 L29.4545455,34.44 L13.0909091,34.44 L13.0909091,37.72 Z" id="Fill-1"></path>
            </g>
        </g>
    </g>
</svg>