<?xml version="1.0" encoding="UTF-8"?>
<svg width="45px" height="41px" viewBox="0 0 45 41" version="1.1" xmlns="http://www.w3.org/2000/svg" xmlns:xlink="http://www.w3.org/1999/xlink">
    <!-- Generator: Sketch 49.3 (51167) - http://www.bohemiancoding.com/sketch -->
    <title>icons8-knowledge_sharing</title>
    <desc>Created with Sketch.</desc>
    <defs></defs>
    <g id="About-–-Story" stroke="none" stroke-width="1" fill="none" fill-rule="evenodd">
        <g id="Desktop---Story" transform="translate(-376.000000, -2342.000000)" fill="#000000">
            <g id="icons8-knowledge_sharing" transform="translate(376.000000, 2342.000000)">
                <path d="M8.53080569,0 L8.53080569,18.7432466 L18.7677725,18.7432466 C20.6735545,18.7432466 22.1800948,20.2478181 22.1800948,22.1511096 L25.5924171,22.1511096 C25.5924171,20.2478181 27.0989573,18.7432466 29.0047393,18.7432466 L39.2417062,18.7432466 L39.2417062,0 L29.0047393,0 C26.9590521,0 25.1385782,0.952497714 23.8862559,2.3957277 C22.6339336,0.952497714 20.8134597,0 18.7677725,0 L8.53080569,0 Z M11.943128,3.40786302 L18.7677725,3.40786302 C20.6735545,3.40786302 22.1800948,4.91243454 22.1800948,6.81572604 L25.5924171,6.81572604 C25.5924171,4.91243454 27.0989573,3.40786302 29.0047393,3.40786302 L35.8293839,3.40786302 L35.8293839,15.3353836 L29.0047393,15.3353836 C26.9590521,15.3353836 25.1385782,16.2878813 23.8862559,17.7311113 C22.6339336,16.2878813 20.8134597,15.3353836 18.7677725,15.3353836 L11.943128,15.3353836 L11.943128,3.40786302 Z M12.7962085,23.8550411 C11.043981,23.8618569 9.70464455,24.3338459 9.70464455,24.3338459 L9.65004739,24.3338459 L1.54578199,27.4230737 L0,28.0092262 L0.586919431,29.60581 L2.82540284,35.8882055 L3.41232227,37.5393151 L5.01270142,36.9003408 L11.837346,34.2916216 L23.2464455,40.5740171 L23.9920379,41 L24.7393365,40.6813648 L45,32.3218768 L43.7203791,29.1270052 L24.2070142,37.2206799 L12.7433175,30.9365805 L12.04891,30.5651234 L11.3562085,30.8309367 L5.43924171,33.0664949 L4.37118483,30.0317929 L10.8238863,27.5287175 L10.8767773,27.5287175 C10.916019,27.515086 11.6769668,27.2629042 12.8490995,27.2629042 C14.0485308,27.2629042 15.4356398,27.515086 16.6350711,28.5936747 L16.6350711,28.6464966 C18.3941232,30.1715153 19.747109,31.2092095 21.5931754,31.7885463 C23.4392417,32.367883 25.5054028,32.441152 29.0047393,32.4275206 L29.0047393,29.0196576 C25.5719431,29.033289 23.7804739,28.9071981 22.6066351,28.5408528 C21.4532701,28.1813232 20.5797156,27.5219018 18.9281517,26.0905993 C18.9076777,26.071856 18.8940284,26.0582246 18.8735545,26.0377774 C16.9080569,24.3014712 14.5296682,23.8482254 12.7962085,23.8550411 Z" id="Fill-1"></path>
            </g>
        </g>
    </g>
</svg>