<?xml version="1.0" encoding="UTF-8"?>
<svg width="26px" height="23px" viewBox="0 0 26 23" version="1.1" xmlns="http://www.w3.org/2000/svg" xmlns:xlink="http://www.w3.org/1999/xlink">
    <!-- Generator: Sketch 49.3 (51167) - http://www.bohemiancoding.com/sketch -->
    <title>rise_black</title>
    <desc>Created with Sketch.</desc>
    <defs></defs>
    <g id="Symbols" stroke="none" stroke-width="1" fill="none" fill-rule="evenodd">
        <g id="Navigation-/-V2" transform="translate(-1232.000000, -21.000000)" fill="#000000" fill-rule="nonzero">
            <g id="rise_black" transform="translate(1232.000000, 21.000000)">
                <path d="M3.63053622,12 C3.46738191,12 3.30422759,12.0104548 3.13984655,12.0203868 L3.03496164,12.1197073 C3.02330776,12.4976477 3,13.0648197 3,13.2535285 C3,13.5122844 3,13.9205436 3.13984655,14 L3.2717194,14 C4.46225521,13.9702039 4.99956039,13.8405646 4.99956039,12.8755881 C5.00542153,12.7040493 4.95256695,12.5347656 4.84744659,12.3883952 C4.61130219,12.0799791 4.12061253,12 3.63053622,12 Z" id="Shape"></path>
                <path d="M25.2559891,0 L19.7962214,0 C19.3853156,0 19.0522105,0.35380553 19.0522105,0.790246769 L19.0522105,2.20564042 C19.0522105,2.64240615 18.7188579,2.99647474 18.3076465,2.99647474 L13.4397685,2.99647474 C13.0288627,2.99647474 12.6957576,3.35028027 12.6957576,3.7867215 L12.6957576,5.23619271 C12.6954523,5.67272898 12.362189,6.0264396 11.9511936,6.02643948 L7.0833156,6.02643948 C6.67232027,6.0267638 6.3393046,6.38073741 6.33930471,6.8172738 L6.33930471,8.29494712 C6.33930471,8.73138836 6.00619969,9.08519389 5.59529382,9.08519389 L0.744010893,9.08519389 C0.333105023,9.08519389 1.57219787e-15,9.43899942 0,9.87544066 L0,22.2097532 C0,22.6461945 0.333105023,23 0.744010893,23 L25.2559891,23 C25.666895,23 26,22.6461945 26,22.2097532 L26,0.790246769 C26,0.35380553 25.666895,0 25.2559891,0 Z M6.14846177,18.2679201 C6.10847458,18.2634611 6.06943151,18.2521513 6.03284967,18.2344301 L4.90659972,18.2344301 C4.83176699,18.2292189 4.76451257,18.1841027 4.72792647,18.1145711 L3.26424407,16.2802585 C3.22220331,16.2356052 3.16965236,16.1351351 3.09829369,16.1351351 C3.0877835,16.1351351 3.07727331,16.146886 3.04574273,16.2802585 L3.04574273,18.0916569 C3.04574273,18.1257344 3.02472235,18.1815511 2.98268159,18.1815511 L1.54887026,18.1815511 C1.28556232,18.1815511 1.23301136,18.0587544 1.21143781,17.7902468 C1.21143781,15.8783784 1.24352155,14.5810811 1.24352155,12.9723854 C1.24352155,12.7714454 1.21143781,11.3513514 1.21143781,11.306698 C1.22250117,11.060517 1.24352155,10.4905993 1.26675461,10.4682726 L4.1802902,10.4682726 C5.50789328,10.4682726 6.70660823,11.6527615 6.70660823,13.0957697 C6.70660823,14.2473561 6.03284967,15.0746181 5.05374239,15.4994125 C5.03327518,15.4994125 5.02221182,15.5211516 5.02221182,15.5552291 C5.02221182,15.5663925 5.03327518,15.5775558 5.03327518,15.5887192 L6.83273052,17.9253819 C6.89579167,18.0710928 6.95885281,18.1603995 6.95885281,18.1827262 C6.95885281,18.2320799 6.18828986,18.2679201 6.14846177,18.2679201 Z M10.8553679,7.75910693 L10.8553679,7.98296122 C10.8553679,10.3754407 10.8448577,12.7790834 10.8028169,15.1721504 C10.7502659,15.3061105 10.6661844,15.3061105 10.5190417,15.3061105 L9.24675546,15.3061105 C9.20471469,15.3061105 9.15216374,15.2949471 9.04650866,15.2949471 C8.96242713,15.2837838 8.88055827,15.2502938 8.84626186,15.1498237 C8.8042211,14.6797885 8.8042211,13.886604 8.8042211,13.7632197 C8.8042211,12.086369 8.8783456,10.4089307 8.8783456,8.74324324 C8.8783456,8.53055229 8.86783541,8.25146886 8.86783541,8.20681551 C8.90987618,7.94947121 8.86783541,7.58049354 8.9939577,7.49118684 C9.58363474,7.49118684 10.1517382,7.53584019 10.7414153,7.53584019 L10.8149866,7.58049354 L10.8570274,7.64747356 L10.8553679,7.75910693 Z M16.1303774,12.5329025 C15.3897769,12.5351012 14.6611109,12.3347851 14.01451,11.9512338 C13.63559,11.7056404 13.5719757,11.6386604 13.5719757,11.6045828 L13.5719757,11.5599295 C13.6350368,11.4371328 14.0454874,10.6433608 14.3403259,10.1733255 C14.5826135,10.1733255 14.7275435,10.4083431 14.9089826,10.4976498 C15.3045635,10.703953 15.740637,10.807462 16.1812689,10.7996475 C16.4866176,10.7996475 16.8024765,10.6768508 16.8024765,10.3078731 C16.8024765,10.1627497 16.7709459,10.0511163 16.6232501,9.84958872 C16.2670099,9.48237368 15.6043147,9.12514689 15.2569252,8.89012926 C14.4144504,8.32021152 13.8988979,7.62690952 13.8988979,6.67626322 C13.8988979,5.15628672 15.0461682,4.51880141 16.4672567,4.51880141 C16.8974984,4.51892311 17.3234143,4.60999912 17.7201821,4.7867215 C17.8147738,4.82079906 18.3518999,5.07755582 18.3518999,5.15628672 L18.3408366,5.21151586 C18.3408366,5.24559342 18.2987958,5.25675676 18.2987958,5.30141011 C18.1516531,5.62573443 17.7511595,6.3413631 17.667078,6.46415981 C17.6565678,6.49764982 17.6355474,6.49764982 17.614527,6.49764982 C17.4568742,6.49764982 16.8671971,6.12867215 16.4462363,6.12867215 C16.1724182,6.12867215 15.8145185,6.28554642 15.8145185,6.63160987 C15.8145185,6.8666275 15.9201736,7.02291422 16.1303774,7.20211516 C16.5939322,7.57109283 16.540828,7.50411281 16.9728522,7.79435958 C17.4673844,8.17450059 17.9198757,8.44065805 18.2252245,8.82314924 C18.5726139,9.29318449 18.6566955,9.60575793 18.6566955,10.1310223 C18.6566955,11.573443 17.4673844,12.5329025 16.1303774,12.5329025 Z M24.6895451,9.11280846 C24.6895451,9.49294947 24.3316455,9.50411281 23.8476235,9.50411281 C22.8165184,9.50411281 21.9004723,9.4706228 20.921365,9.4706228 C20.8793243,9.4706228 20.8057529,9.48178613 20.7000979,9.48178613 C20.5529552,9.48178613 20.3953023,9.44770858 20.3532616,9.31374853 C20.3532616,8.91128085 20.3421982,8.55346651 20.3421982,8.26321974 C20.3421982,8.09518214 20.3421982,7.89424207 20.4163227,7.74853114 C20.4163227,7.7373678 20.384239,7.71504113 20.3737288,7.71504113 C20.3737288,7.21210341 20.3532616,6.71974148 20.3532616,6.18331375 C20.3532616,5.13219741 20.4163227,2.28143361 20.4163227,1.93478261 C20.4163227,1.86780259 20.3953023,1.81139835 20.3953023,1.74441833 L20.5004042,1.65511163 C21.1000383,1.65511163 21.7212459,1.61045828 22.3319433,1.61045828 C22.5847411,1.61045828 22.9636611,1.62162162 23.3425812,1.62162162 C23.9737458,1.62162162 24.5213821,1.63278496 24.5949534,1.71092832 L24.6270371,1.97943596 C24.6270371,2.13572268 24.5949534,2.91950646 24.5949534,3.08636898 C24.5949534,3.35487662 24.1319518,3.36603995 23.2673503,3.36603995 C23.1091443,3.36603995 22.9620016,3.35487662 22.824816,3.35487662 L22.3297306,3.36603995 C22.3297306,3.63454759 22.2876899,3.91363102 22.2876899,4.2826087 C22.2876899,4.30493537 22.2771797,4.31609871 22.2771797,4.32726204 C22.2771797,4.47297297 22.2982001,4.64042303 22.4431301,4.64042303 L24.3792179,4.64042303 C24.4345347,4.64042303 24.4953832,4.77438308 24.4953832,4.81668625 C24.484873,5.10752056 24.4743628,5.80082256 24.4638526,6.2479436 L24.3792179,6.31551116 C23.6639717,6.31551116 22.6643973,6.31551116 22.3795158,6.34841363 C22.2954342,6.37132785 22.284924,6.49412456 22.284924,6.68448884 C22.284924,6.87485311 22.2954342,7.34371328 22.2954342,7.6680376 C22.3795158,7.82432432 24.0849326,7.73501763 24.6220586,7.81316099 C24.7061402,7.86897767 24.7166504,7.98119859 24.7166504,8.14864865 C24.7194162,8.47884841 24.6895451,8.79024677 24.6895451,9.11457109 L24.6895451,9.11280846 Z" id="Shape"></path>
            </g>
        </g>
    </g>
</svg>