<?xml version="1.0" encoding="UTF-8"?>
<svg width="31px" height="10px" viewBox="0 0 31 10" version="1.1" xmlns="http://www.w3.org/2000/svg" xmlns:xlink="http://www.w3.org/1999/xlink">
    <!-- Generator: Sketch 49.3 (51167) - http://www.bohemiancoding.com/sketch -->
    <title>Group 7</title>
    <desc>Created with Sketch.</desc>
    <defs></defs>
    <g id="Symbols" stroke="none" stroke-width="1" fill="none" fill-rule="evenodd">
        <g id="Navigation-/-V2" transform="translate(-1269.000000, -34.000000)" fill="#000000" fill-rule="nonzero">
            <g id="Group-7" transform="translate(1269.000000, 34.000000)">
                <path d="M12.929804,2.72729276 C11.7907047,2.72729276 10.9411765,3.61185991 10.9411765,4.70642377 C10.9411765,5.35870406 11.1899797,5.88897508 11.6192403,6.23153955 C11.8338706,6.44153626 12.3764416,6.6955267 13.0203325,6.6955267 C14.1594318,6.6955267 14.9987681,5.80040105 14.9987681,4.70583719 C14.9987681,4.23011839 14.8860572,3.92098915 14.5131521,3.43412527 C14.1166418,2.98300447 13.5379184,2.72465283 12.929804,2.72729276 Z" id="Shape"></path>
                <path d="M29.4772927,3.29336146e-15 L8.24878729,3.29336146e-15 C8.23313793,0.0314813949 8.22236332,0.0650667466 8.21681754,0.0996523754 C8.21681754,0.197566628 7.47618502,2.32560834 7.39744471,2.53302433 C7.25298881,2.92584009 7.14701501,3.26882966 6.97354952,3.7230591 L5.55681601,7.7207416 C5.45557847,7.88528389 5.40762385,8.17670915 5.32651541,8.42062572 C5.25118783,8.64196954 5.04093942,8.79239019 4.80256675,8.79548088 C4.33722929,8.80417149 3.50483175,8.82387022 3.13540354,8.82387022 L3.03475803,8.71436848 L2.13901302,6.34530707 C2.01646232,6.17149479 2.01646232,5.95191194 1.91640885,5.77752028 L1.34687369,4.20509849 L1.33562507,4.12862109 C1.33562507,4.07358053 1.34687369,3.98667439 1.44751919,3.98667439 L3.40122608,3.98667439 C3.46796848,3.99340769 3.52232539,4.04213029 3.5350254,4.10660487 L3.9938505,5.33893395 C4.01634773,5.40498262 4.06075016,5.49188876 4.10574462,5.49188876 C4.17974867,5.49188876 5.02576296,3.18539977 5.12285627,2.91830823 C5.12936863,2.90034762 5.13351285,2.88644264 5.13824911,2.86848204 C5.24836714,2.42757822 5.94637332,0.27636153 6.04050647,0 L1.52270731,0 C1.11886022,-3.29336146e-15 0.731553658,0.156997563 0.445990644,0.436455017 C0.160427631,0.715912471 0,1.09493812 0,1.49015064 L0,8.50984936 C0,9.33283683 0.681739283,10 1.52270731,10 L29.4772927,10 C30.3182607,10 31,9.33283683 31,8.50984936 L31,1.49015064 C31,0.667163165 30.3182607,3.29336146e-15 29.4772927,3.29336146e-15 Z M12.9441962,8.96465817 C11.6275161,8.96465817 10.656583,8.30938586 10.2770903,7.93800695 C9.40997032,7.14295945 8.92079008,6.03014267 8.92725641,4.86732329 C8.92725641,4.22132097 9.12025897,3.66396292 9.38075322,3.08285052 C9.40785412,3.0300393 9.44433915,2.9823673 9.48850311,2.94206257 C9.64243153,2.78736964 9.72886826,2.51158749 9.8756923,2.37775203 C10.7903823,1.49304751 11.5606165,1.03476246 12.8772965,1.03476246 C14.1158283,1.03476246 15.2093121,1.51506373 15.9677056,2.31228273 C16.414098,2.74913094 17.0280356,3.7207416 17.0280356,5.06373117 C17.0280356,7.07300116 15.2874604,8.96465817 12.9441962,8.96465817 Z M22.8311371,2.83835458 L21.860204,2.83835458 C21.7713991,2.83835458 21.7264046,2.96987254 21.7264046,3.04577057 L21.7264046,8.68076477 C21.6904095,8.72076552 21.6442513,8.75074646 21.5926053,8.76767092 L19.8407815,8.76767092 L19.7626332,8.70220162 C19.7513846,8.69177289 19.7294794,5.36095017 19.7294794,3.57010429 L19.7294794,3.4368482 C19.7297452,3.13977423 19.4904764,2.89539616 19.1871777,2.8829664 C18.8094611,2.86732329 18.3790535,2.82792584 18.3790535,2.72943221 L18.3790535,1.33140209 C18.3790535,1.32097335 18.4347046,1.28794902 18.4684504,1.26593279 L20.4766243,1.26593279 C20.5410698,1.26966047 20.6048496,1.28074371 20.6666667,1.29895713 C20.6827031,1.2941272 20.6951696,1.28170937 20.6998205,1.26593279 L22.9193499,1.26593279 L23.0199954,1.29895713 C23.030652,1.49536501 23.0419006,1.97566628 23.0419006,2.77288528 C23.0430847,2.80590962 22.8867881,2.83835458 22.8311371,2.83835458 Z M29.5803063,8.50579374 C29.5803063,8.87717265 29.2014056,8.88818076 28.6875215,8.88818076 C27.5946297,8.88818076 26.6236966,8.85515643 25.5858638,8.85515643 C25.5414614,8.85515643 25.4633131,8.86616454 25.3490508,8.86616454 C25.1927543,8.86616454 25.0258012,8.83371958 24.9808067,8.70220162 C24.9808067,8.30938586 24.9695581,7.96002317 24.9695581,7.67612978 C24.9695581,7.51216686 24.9695581,7.31575898 25.0477064,7.17381228 C25.0477064,7.16280417 25.0145525,7.14078795 25.0033039,7.14078795 C25.0033039,6.64947856 24.9808067,6.16917729 24.9808067,5.64484357 C24.9808067,4.61877173 25.0477064,1.83371958 25.0477064,1.49536501 C25.0477064,1.42989571 25.0258012,1.37543453 25.0258012,1.30996524 L25.1371032,1.22247972 C25.772946,1.22247972 26.4318781,1.17902665 27.0783774,1.17902665 C27.3465681,1.17902665 27.7479661,1.18945539 28.1499561,1.18945539 C28.8195447,1.18945539 29.3997365,1.2004635 29.4778847,1.2769409 L29.5110385,1.53881808 C29.5110385,1.69177289 29.4778847,2.45654693 29.4778847,2.62050985 C29.4778847,2.88238702 28.9864978,2.89339513 28.0718078,2.89339513 C27.9042626,2.89339513 27.7479661,2.88238702 27.6029181,2.88238702 C27.3079993,2.88932043 27.0674163,3.11570427 27.0487758,3.40382387 C27.0404874,3.51969873 27.033975,3.64774044 27.033975,3.78736964 C27.033975,3.80938586 27.0227264,3.82039397 27.0227264,3.83082271 C27.0227264,3.97334878 27.0452236,4.13673233 27.2003361,4.13673233 L29.2535044,4.13673233 C29.3091555,4.13673233 29.3760552,4.26767092 29.3760552,4.31054461 C29.3648065,4.59443801 29.3535579,5.27114716 29.3423093,5.70799537 L29.2535044,5.77346466 C28.4945189,5.77346466 27.4347809,5.77346466 27.1334365,5.80648899 C27.0440396,5.82850521 27.032791,5.94843569 27.032791,6.13383546 C27.032791,6.2387022 27.0363431,6.43105446 27.0393033,6.63499421 C27.0427515,6.92851674 27.2795986,7.16843262 27.5792369,7.18192352 C28.1831099,7.20799537 29.1268095,7.18539977 29.5098545,7.23696408 C29.5992514,7.29142526 29.6105,7.40034762 29.6105,7.56431054 C29.6158283,7.88412514 29.5820824,8.18945539 29.5820824,8.50579374 L29.5803063,8.50579374 Z" id="Shape"></path>
            </g>
        </g>
    </g>
</svg>